<svg width="19" height="18" viewBox="0 0 19 18" fill="none" xmlns="http://www.w3.org/2000/svg">
<path d="M3.18555 17.7871H15.8809C17.7656 17.7871 18.7129 16.8496 18.7129 14.9941V3.70508C18.7129 1.84961 17.7656 0.902344 15.8809 0.902344H3.18555C1.31055 0.902344 0.353516 1.83984 0.353516 3.70508V14.9941C0.353516 16.8594 1.31055 17.7871 3.18555 17.7871ZM3.06836 16.4395C2.18945 16.4395 1.70117 15.9707 1.70117 15.0625V6.46875C1.70117 5.55078 2.18945 5.08203 3.06836 5.08203H15.9883C16.8574 5.08203 17.3652 5.55078 17.3652 6.46875V15.0625C17.3652 15.9707 16.8574 16.4395 15.9883 16.4395H3.06836ZM7.7168 8.38281H8.25391C8.56641 8.38281 8.66406 8.29492 8.66406 7.99219V7.44531C8.66406 7.14258 8.56641 7.05469 8.25391 7.05469H7.7168C7.4043 7.05469 7.30664 7.14258 7.30664 7.44531V7.99219C7.30664 8.29492 7.4043 8.38281 7.7168 8.38281ZM10.8027 8.38281H11.3496C11.6621 8.38281 11.7598 8.29492 11.7598 7.99219V7.44531C11.7598 7.14258 11.6621 7.05469 11.3496 7.05469H10.8027C10.5 7.05469 10.4023 7.14258 10.4023 7.44531V7.99219C10.4023 8.29492 10.5 8.38281 10.8027 8.38281ZM13.8984 8.38281H14.4453C14.7578 8.38281 14.8457 8.29492 14.8457 7.99219V7.44531C14.8457 7.14258 14.7578 7.05469 14.4453 7.05469H13.8984C13.5859 7.05469 13.4883 7.14258 13.4883 7.44531V7.99219C13.4883 8.29492 13.5859 8.38281 13.8984 8.38281ZM4.62109 11.4297H5.16797C5.48047 11.4297 5.56836 11.3418 5.56836 11.0293V10.4922C5.56836 10.1797 5.48047 10.0918 5.16797 10.0918H4.62109C4.30859 10.0918 4.21094 10.1797 4.21094 10.4922V11.0293C4.21094 11.3418 4.30859 11.4297 4.62109 11.4297ZM7.7168 11.4297H8.25391C8.56641 11.4297 8.66406 11.3418 8.66406 11.0293V10.4922C8.66406 10.1797 8.56641 10.0918 8.25391 10.0918H7.7168C7.4043 10.0918 7.30664 10.1797 7.30664 10.4922V11.0293C7.30664 11.3418 7.4043 11.4297 7.7168 11.4297ZM10.8027 11.4297H11.3496C11.6621 11.4297 11.7598 11.3418 11.7598 11.0293V10.4922C11.7598 10.1797 11.6621 10.0918 11.3496 10.0918H10.8027C10.5 10.0918 10.4023 10.1797 10.4023 10.4922V11.0293C10.4023 11.3418 10.5 11.4297 10.8027 11.4297ZM13.8984 11.4297H14.4453C14.7578 11.4297 14.8457 11.3418 14.8457 11.0293V10.4922C14.8457 10.1797 14.7578 10.0918 14.4453 10.0918H13.8984C13.5859 10.0918 13.4883 10.1797 13.4883 10.4922V11.0293C13.4883 11.3418 13.5859 11.4297 13.8984 11.4297ZM4.62109 14.4766H5.16797C5.48047 14.4766 5.56836 14.3887 5.56836 14.0762V13.5391C5.56836 13.2266 5.48047 13.1387 5.16797 13.1387H4.62109C4.30859 13.1387 4.21094 13.2266 4.21094 13.5391V14.0762C4.21094 14.3887 4.30859 14.4766 4.62109 14.4766ZM7.7168 14.4766H8.25391C8.56641 14.4766 8.66406 14.3887 8.66406 14.0762V13.5391C8.66406 13.2266 8.56641 13.1387 8.25391 13.1387H7.7168C7.4043 13.1387 7.30664 13.2266 7.30664 13.5391V14.0762C7.30664 14.3887 7.4043 14.4766 7.7168 14.4766ZM10.8027 14.4766H11.3496C11.6621 14.4766 11.7598 14.3887 11.7598 14.0762V13.5391C11.7598 13.2266 11.6621 13.1387 11.3496 13.1387H10.8027C10.5 13.1387 10.4023 13.2266 10.4023 13.5391V14.0762C10.4023 14.3887 10.5 14.4766 10.8027 14.4766Z" fill="black"/>
</svg>
