<svg width="9" height="8" viewBox="0 0 9 8" fill="none" xmlns="http://www.w3.org/2000/svg">
<path d="M9 3.65527C9 3.50391 8.93164 3.35254 8.81934 3.24023L5.79199 0.217773C5.66504 0.0908203 5.52832 0.0371094 5.3916 0.0371094C5.06934 0.0371094 4.83984 0.266602 4.83984 0.569336C4.83984 0.730469 4.90332 0.867188 5.00586 0.969727L6.05078 2.01953L7.29102 3.15723L6.24121 3.09863H0.748047C0.411133 3.09863 0.176758 3.32324 0.176758 3.65527C0.176758 3.9873 0.411133 4.2168 0.748047 4.2168H6.24121L7.29102 4.15332L6.05078 5.29102L5.00586 6.3457C4.90332 6.44336 4.83984 6.58008 4.83984 6.74121C4.83984 7.04883 5.06934 7.27832 5.3916 7.27832C5.52832 7.27832 5.66504 7.21973 5.78223 7.10254L8.81934 4.07031C8.93164 3.96289 9 3.81152 9 3.65527Z" fill="black"/>
</svg>
