<svg width="13" height="12" viewBox="0 0 13 12" fill="none" xmlns="http://www.w3.org/2000/svg">
<path d="M2.10938 6.57227L6.05859 6.58984C6.14648 6.58984 6.18164 6.625 6.18164 6.71289L6.19336 10.6562C6.19336 11.3477 6.41602 11.916 7.00195 11.916C7.51172 11.916 7.79883 11.4531 8.04492 10.9199L12.2227 1.84961C12.3457 1.58594 12.416 1.35156 12.416 1.14062C12.416 0.695312 12.0703 0.355469 11.625 0.355469C11.4199 0.355469 11.1797 0.425781 10.916 0.548828L1.8457 4.7207C1.33594 4.95508 0.849609 5.24805 0.849609 5.76367C0.849609 6.34375 1.40039 6.57227 2.10938 6.57227Z" fill="black"/>
</svg>
