<svg width="20" height="19" viewBox="0 0 20 19" fill="none" xmlns="http://www.w3.org/2000/svg">
<path d="M12.8438 18.5488C13.166 18.5488 13.4785 18.4609 13.752 18.3047L18.5566 15.5605C19.0742 15.2676 19.3086 14.8574 19.3086 14.2715V1.51758C19.3086 0.873047 18.9473 0.511719 18.332 0.511719C18.1172 0.511719 17.8828 0.580078 17.6094 0.736328L12.7168 3.45117L7.73633 0.394531C7.45312 0.228516 7.13086 0.140625 6.80859 0.140625C6.47656 0.140625 6.14453 0.228516 5.86133 0.394531L1.10547 3.13867C0.587891 3.42188 0.353516 3.83203 0.353516 4.41797V17.1621C0.353516 17.8066 0.714844 18.1777 1.33008 18.1777C1.55469 18.1777 1.7793 18.0996 2.0625 17.9434L6.76953 15.3848L11.8477 18.2656C12.1797 18.4512 12.5215 18.5488 12.8438 18.5488ZM1.83789 16.4492C1.75 16.4492 1.70117 16.3906 1.70117 16.293V4.75C1.70117 4.52539 1.78906 4.36914 2.00391 4.24219L5.90039 1.94727C6.01758 1.88867 6.11523 1.83008 6.22266 1.77148V14.0566L1.96484 16.4102C1.92578 16.4297 1.87695 16.4492 1.83789 16.4492ZM12.0918 16.752C11.9648 16.6836 11.8379 16.625 11.7012 16.5566L7.57031 14.1934V1.9375C7.66797 1.98633 7.77539 2.04492 7.86328 2.10352L12.0918 4.68164V16.752ZM13.4395 16.8984V4.59375L17.6973 2.2793C17.7461 2.25 17.7852 2.23047 17.8242 2.23047C17.9121 2.23047 17.9609 2.28906 17.9609 2.38672V13.9395C17.9609 14.1641 17.8828 14.3203 17.6582 14.457L13.8398 16.6836C13.7031 16.7617 13.5762 16.8301 13.4395 16.8984Z" fill="black"/>
</svg>
