<svg width="25" height="44" viewBox="0 0 25 44" fill="none" xmlns="http://www.w3.org/2000/svg">
<path d="M2.20508 43.0547L24.5293 22.9277C24.793 22.6641 24.9688 22.4297 24.9688 22.0781C24.9688 21.7266 24.7344 21.4629 24.4707 21.1992L2.17578 1.04297C2 0.867188 1.85352 0.75 1.61914 0.75C1.15039 0.75 0.798828 1.13086 0.798828 1.57031C0.798828 1.80469 0.828125 2.03906 1.00391 2.18555L22.9473 22.0488L1.00391 41.9707C0.828125 42.0879 0.798828 42.3223 0.798828 42.5273C0.798828 42.9961 1.15039 43.3477 1.61914 43.3477C1.85352 43.3477 2.0293 43.2012 2.20508 43.0547Z" fill="white"/>
</svg>
