<svg width="35" height="61" viewBox="0 0 35 61" fill="none" xmlns="http://www.w3.org/2000/svg">
<path d="M2.39258 60.4526L34.0186 31.981C34.3921 31.6074 34.6411 31.2754 34.6411 30.7773C34.6411 30.2793 34.3091 29.9058 33.9771 29.5322L2.35107 0.977539C2.10205 0.77002 1.89453 0.604004 1.5625 0.604004C0.939941 0.604004 0.400391 1.10205 0.400391 1.76611C0.400391 2.05664 0.483398 2.38867 0.690918 2.59619L31.8188 30.7358L0.690918 58.9585C0.483398 59.1245 0.400391 59.4565 0.400391 59.7471C0.400391 60.3696 0.939941 60.9092 1.5625 60.9092C1.89453 60.9092 2.14355 60.7017 2.39258 60.4526Z" fill="black"/>
</svg>
