<svg width="28" height="27" viewBox="0 0 28 27" fill="none" xmlns="http://www.w3.org/2000/svg">
<path d="M20.3496 26.8125C22.415 26.8125 24.1582 26.1973 25.6377 24.6738C25.6816 24.6152 25.7402 24.5713 25.7842 24.5273C26.6631 23.6191 27.0732 22.667 27.0732 21.7881C27.0732 20.9824 26.6484 20.2207 25.7842 19.6348L21.5654 16.7637C20.4961 16.0312 19.2363 15.8555 17.9033 17.1445L16.9219 18.0967C16.5996 18.4189 16.1895 18.5215 15.7061 18.2725C15.0615 17.9209 13.4062 16.6758 11.9414 15.2109C10.2715 13.5557 9.52441 12.6475 8.90918 11.4756C8.66016 10.9922 8.7627 10.582 9.08496 10.2598L10.0371 9.26367C11.3262 7.94531 11.1504 6.68555 10.418 5.61621L7.54688 1.39746C6.94629 0.533203 6.19922 0.123047 5.37891 0.108398C4.51465 0.09375 3.5332 0.533203 2.6543 1.39746C2.5957 1.45605 2.56641 1.48535 2.50781 1.54395C1.01367 2.99414 0.369141 4.7373 0.369141 6.74414C0.369141 10.7578 3.12305 15.4893 7.41504 19.7666C11.6631 24 16.3652 26.8125 20.3496 26.8125ZM20.3643 25.6699C16.6289 25.6846 12.1172 22.9307 8.19141 19.0195C4.26562 15.0791 1.49707 10.4941 1.51172 6.75879C1.51172 5.08887 2.06836 3.59473 3.29883 2.39355C3.35742 2.34961 3.40137 2.30566 3.44531 2.24707C4.11914 1.60254 4.77832 1.29492 5.32031 1.29492C5.83301 1.29492 6.24316 1.54395 6.60938 2.07129L9.45117 6.27539C9.87598 6.90527 9.99316 7.68164 9.1875 8.47266L8.10352 9.54199C7.40039 10.2305 7.37109 11.2119 7.81055 11.959C8.32324 12.8525 9.56836 14.3613 11.165 15.9873C12.7764 17.6133 14.3291 18.8584 15.2227 19.3711C15.9697 19.8105 16.9512 19.7812 17.6396 19.0781L18.709 17.9941C19.5 17.1885 20.2617 17.3057 20.9062 17.7305L25.1104 20.5723C25.6377 20.9238 25.8867 21.3486 25.8867 21.8467C25.8867 22.418 25.5791 23.0625 24.9053 23.7363C24.8613 23.7949 24.832 23.8242 24.7881 23.8682C23.5723 25.1133 22.0488 25.6699 20.3643 25.6699Z" fill="black"/>
</svg>
