<svg width="22" height="22" viewBox="0 0 22 22" fill="none" xmlns="http://www.w3.org/2000/svg">
<path fill-rule="evenodd" clip-rule="evenodd" d="M2.5 11C2.50061 9.19152 3.07801 7.43037 4.14826 5.97258C5.21851 4.51479 6.72583 3.43635 8.45108 2.89404C10.1763 2.35172 12.0296 2.3738 13.7414 2.95708C15.4533 3.54035 16.9344 4.6544 17.9697 6.13728C19.0049 7.62016 19.5401 9.39457 19.4977 11.2025C19.4552 13.0105 18.8371 14.7578 17.7334 16.1904C16.6297 17.6231 15.0978 18.6663 13.3605 19.1685C11.6231 19.6707 9.77087 19.6058 8.073 18.983C8.64991 17.4366 9.20962 15.8838 9.752 14.325C10.326 14.735 11.067 15 12 15C13.935 15 15.975 13.725 16.48 11.196C17.117 8.021 14.574 5 11 5C9.497 5 8.019 5.604 6.913 6.562C5.805 7.523 5 8.907 5 10.5C5 11.275 5.234 12.138 5.791 12.706C5.97976 12.8918 6.23394 12.996 6.4988 12.9962C6.76365 12.9964 7.01798 12.8925 7.207 12.707C7.39081 12.5233 7.4959 12.2753 7.50001 12.0155C7.50411 11.7556 7.40692 11.5044 7.229 11.315C6.443 10.335 7.479 8.719 8.223 8.074C8.996 7.404 10.017 7 11 7C13.427 7 14.884 8.979 14.52 10.804C14.216 12.318 13.064 13 12 13C11.182 13 10.742 12.655 10.46 12.208C10.614 11.724 10.745 11.284 10.839 10.926C11.031 10.189 11.147 9.3 10.484 8.747C9.991 8.337 9.409 8.427 9.053 8.606C8.39 8.936 8 9.71 8 10.5C8 10.941 8.069 11.625 8.317 12.332C7.6717 14.2566 6.99226 16.1696 6.279 18.07C5.11564 17.2938 4.16198 16.2424 3.50273 15.009C2.84347 13.7756 2.49903 12.3985 2.5 11ZM11 0.5C5.201 0.5 0.5 5.201 0.5 11C0.5 16.799 5.201 21.5 11 21.5C16.799 21.5 21.5 16.799 21.5 11C21.5 5.201 16.799 0.5 11 0.5Z" fill="black"/>
</svg>
