<svg width="25" height="44" viewBox="0 0 25 44" fill="none" xmlns="http://www.w3.org/2000/svg">
<path d="M22.7949 43.0547L0.470703 22.9277C0.207031 22.6641 0.03125 22.4297 0.03125 22.0781C0.03125 21.7266 0.265625 21.4629 0.529297 21.1992L22.8242 1.04297C23 0.867188 23.1465 0.75 23.3809 0.75C23.8496 0.75 24.2012 1.13086 24.2012 1.57031C24.2012 1.80469 24.1719 2.03906 23.9961 2.18555L2.05273 22.0488L23.9961 41.9707C24.1719 42.0879 24.2012 42.3223 24.2012 42.5273C24.2012 42.9961 23.8496 43.3477 23.3809 43.3477C23.1465 43.3477 22.9707 43.2012 22.7949 43.0547Z" fill="white"/>
</svg>
