<svg width="35" height="61" viewBox="0 0 35 61" fill="none" xmlns="http://www.w3.org/2000/svg">
<path d="M32.6074 60.4526L0.981445 31.981C0.60791 31.6074 0.358887 31.2754 0.358887 30.7773C0.358887 30.2793 0.690918 29.9058 1.02295 29.5322L32.6489 0.977539C32.8979 0.77002 33.1055 0.604004 33.4375 0.604004C34.0601 0.604004 34.5996 1.10205 34.5996 1.76611C34.5996 2.05664 34.5166 2.38867 34.3091 2.59619L3.18115 30.7358L34.3091 58.9585C34.5166 59.1245 34.5996 59.4565 34.5996 59.7471C34.5996 60.3696 34.0601 60.9092 33.4375 60.9092C33.1055 60.9092 32.8564 60.7017 32.6074 60.4526Z" fill="black"/>
</svg>
