<svg width="17" height="16" viewBox="0 0 17 16" fill="none" xmlns="http://www.w3.org/2000/svg">
<path d="M7.12988 12.4883C8.5625 12.4883 9.88965 11.9961 10.9443 11.1787L15.3213 15.5732C15.4443 15.6963 15.6201 15.7666 15.8047 15.7666C16.2178 15.7666 16.4902 15.4502 16.4902 15.0811C16.4902 14.8965 16.4287 14.7295 16.2969 14.5977L11.9287 10.2207C12.8164 9.13965 13.3525 7.76855 13.3525 6.26562C13.3525 2.84668 10.5488 0.0429688 7.12988 0.0429688C3.71094 0.0429688 0.907227 2.84668 0.907227 6.26562C0.907227 9.69336 3.71094 12.4883 7.12988 12.4883ZM7.12988 11.627C4.19434 11.627 1.77734 9.20996 1.77734 6.26562C1.77734 3.33008 4.19434 0.913086 7.12988 0.913086C10.0654 0.913086 12.4824 3.33008 12.4824 6.26562C12.4824 9.20996 10.0654 11.627 7.12988 11.627Z" fill="black"/>
</svg>
