<svg width="20" height="22" viewBox="0 0 20 22" fill="none" xmlns="http://www.w3.org/2000/svg">
<path d="M19.5882 6.24691C19.5882 6.24691 18.1467 6.59259 16.036 6.91358C15.0322 2.83951 12.7413 0 10.0386 0C7.33591 0 5.04504 2.83951 4.04118 6.91358C1.90476 6.59259 0.41184 6.24691 0.41184 6.24691C0.18018 6.24691 0 6.41975 0 6.64198V21.6049C0 21.8272 0.18018 22 0.41184 22H19.5882C19.8198 22 20 21.8272 20 21.6049V6.64198C20 6.41975 19.8198 6.24691 19.5882 6.24691ZM10.0386 1.50617C12.3295 1.50617 14.3115 3.72839 15.3411 7.01235C13.7452 7.23457 11.8662 7.40741 9.98713 7.40741C8.15959 7.40741 6.30631 7.23457 4.73616 7.03704C5.76577 3.7284 7.74775 1.50617 10.0386 1.50617ZM18.713 20.642C18.713 20.8395 18.5328 21.0123 18.3269 21.0123H1.72458C1.51866 21.0123 1.33848 20.8395 1.33848 20.642L1.00386 7.58025C1.00386 7.38272 1.10682 7.23457 1.33848 7.23457C1.33848 7.23457 2.3166 7.72839 3.78378 8.2716C3.68082 8.98765 3.6036 9.67901 3.55212 10.3951C3.03732 10.4938 2.65122 10.9136 2.65122 11.4321C2.65122 12.0247 3.16602 12.4938 3.80952 12.4938C4.45302 12.4938 4.96782 12.0247 4.96782 11.4321C4.96782 10.9383 4.58172 10.5185 4.09266 10.4198C4.14414 9.77778 4.2471 9.1358 4.3758 8.49383C5.97169 9.03704 8.00515 9.55556 9.90991 9.55556C11.9691 9.55556 14.0798 9.03704 15.7014 8.49383C15.8301 9.1358 15.9331 9.77778 15.9846 10.4198C15.444 10.5185 15.0322 10.9383 15.0322 11.4568C15.0322 12.0494 15.547 12.5185 16.1905 12.5185C16.834 12.5185 17.3488 12.0494 17.3488 11.4568C17.3488 10.9877 17.0142 10.5926 16.5251 10.4444C16.4994 9.72839 16.4221 9.01235 16.2934 8.2963C17.7091 7.77778 18.6615 7.30864 18.6615 7.30864C18.8674 7.30864 19.0219 7.40741 19.0219 7.60494L18.713 20.642Z" fill="black"/>
</svg>
