<svg width="23" height="22" viewBox="0 0 23 22" fill="none" xmlns="http://www.w3.org/2000/svg">
<path d="M0.661133 7.41553C0.661133 12.1641 4.89697 16.8149 11.1226 20.8799C11.3179 21.002 11.5742 21.1118 11.7573 21.1118C11.9526 21.1118 12.209 21.002 12.3921 20.8799C18.6177 16.8149 22.8657 12.1641 22.8657 7.41553C22.8657 3.55811 20.2046 0.799316 16.6279 0.799316C14.5771 0.799316 12.7217 1.89795 11.7573 3.60693C10.8052 1.91016 8.94971 0.799316 6.88672 0.799316C3.32227 0.799316 0.661133 3.55811 0.661133 7.41553ZM1.83301 7.41553C1.83301 4.19287 3.98145 1.9834 6.87451 1.9834C9.01074 1.9834 10.3779 3.28955 11.1958 4.70557C11.4033 5.03516 11.5498 5.14502 11.7573 5.14502C11.9648 5.14502 12.0991 5.03516 12.3188 4.70557C13.1611 3.30176 14.5161 1.9834 16.6401 1.9834C19.5454 1.9834 21.6816 4.19287 21.6816 7.41553C21.6816 11.7612 17.1895 16.29 11.9404 19.7935C11.8672 19.8423 11.8062 19.8789 11.7573 19.8789C11.7207 19.8789 11.6597 19.8423 11.5742 19.7935C6.3374 16.29 1.83301 11.7612 1.83301 7.41553Z" fill="black"/>
</svg>
