<svg width="23" height="23" viewBox="0 0 23 23" fill="none" xmlns="http://www.w3.org/2000/svg">
<path d="M16.7012 22.4536C18.4468 22.4536 19.8018 21.9531 20.9614 20.7202C21.0225 20.6592 21.0713 20.5981 21.1201 20.5493C21.8159 19.8169 22.1333 19.0601 22.1333 18.3643C22.1333 17.6685 21.7549 17.0215 20.9614 16.4722L17.6411 14.1895C16.7378 13.5669 15.6758 13.4448 14.6504 14.4458L13.8447 15.2393C13.5884 15.4956 13.2954 15.5566 12.9536 15.3735C12.4043 15.0562 11.1226 14.043 10.0728 12.9932C8.88867 11.8213 8.20508 11.0156 7.74121 10.1611C7.55811 9.81934 7.60693 9.52637 7.86328 9.27002L8.65674 8.45215C9.65771 7.43896 9.53564 6.36475 8.92529 5.47363L6.63037 2.14111C6.09326 1.34766 5.44629 0.981445 4.73828 0.969238C4.04248 0.957031 3.27344 1.29883 2.55322 1.98242C2.49219 2.04346 2.44336 2.09229 2.38232 2.14111C1.17383 3.28857 0.648926 4.64355 0.648926 6.36475C0.648926 9.56299 2.77295 13.3838 6.25195 16.8506C9.71875 20.3052 13.5151 22.4536 16.7012 22.4536ZM16.7012 21.2817C13.7715 21.3062 10.146 19.1089 7.10645 16.0693C4.04248 13.0054 1.79639 9.30664 1.8208 6.36475C1.83301 5.0708 2.27246 3.92334 3.22461 3.02002C3.27344 2.9834 3.32227 2.93457 3.37109 2.89795C3.83496 2.44629 4.31104 2.23877 4.71387 2.23877C5.09229 2.23877 5.40967 2.40967 5.66602 2.80029L7.8999 6.12061C8.20508 6.57227 8.27832 7.12158 7.729 7.64648L6.82568 8.5498C6.19092 9.17236 6.20312 10.0024 6.61816 10.6616C7.10645 11.4185 8.13184 12.6392 9.26709 13.7866C10.4146 14.9341 11.6963 15.9961 12.4531 16.4844C13.1001 16.9116 13.9424 16.9116 14.5649 16.2891L15.4561 15.3735C15.9932 14.8364 16.5303 14.8975 16.9819 15.2026L20.3022 17.4365C20.6929 17.7051 20.876 18.0225 20.876 18.4009C20.876 18.8037 20.6562 19.2676 20.2046 19.7437C20.1558 19.7925 20.1313 19.8291 20.0825 19.8779C19.1792 20.8423 18.0195 21.2695 16.7012 21.2817Z" fill="black"/>
</svg>
